<?xml version="1.0" ?><!DOCTYPE svg  PUBLIC '-//W3C//DTD SVG 1.1//EN'  'http://www.w3.org/Graphics/SVG/1.1/DTD/svg11.dtd'><svg enable-background="new 0 0 130 130" height="130px" id="Layer_1" version="1.1" viewBox="0 0 130 130" width="130px" xml:space="preserve" xmlns="http://www.w3.org/2000/svg" xmlns:xlink="http://www.w3.org/1999/xlink"><g><g><g><g><g><path d="M107.373,86.225c3.119-6.307,4.881-13.406,4.881-20.92c0-26.098-21.154-47.256-47.254-47.256       S17.746,39.207,17.746,65.305c0,7.514,1.762,14.613,4.881,20.92H107.373z" fill="#41C6E5"/><g><circle cx="94.798" cy="69.811" fill="#34A2CE" r="8.609"/><rect fill="#34A2CE" height="9.758" width="3.332" x="93.132" y="76.467"/></g><g><circle cx="81.024" cy="76.734" fill="#34A2CE" r="4.978"/><rect fill="#34A2CE" height="5.643" width="1.928" x="80.06" y="80.582"/></g><g><circle cx="87.777" cy="81.104" fill="#34A2CE" r="2.686"/><rect fill="#34A2CE" height="3.043" width="1.039" x="87.257" y="83.182"/></g><g><circle cx="100.314" cy="81.104" fill="#34A2CE" r="2.686"/><rect fill="#34A2CE" height="3.043" width="1.039" x="99.794" y="83.182"/></g><g><path d="        M100.314,57.662c0-4.545-3.684-8.227-8.229-8.227c-4.543,0-8.227,3.682-8.227,8.227h-8.621" fill="none" stroke="#7BECFF" stroke-linecap="round" stroke-linejoin="round" stroke-miterlimit="10" stroke-width="2"/><path d="        M104.486,57.662c0-3.174-2.572-5.746-5.746-5.746" fill="none" stroke="#7BECFF" stroke-linecap="round" stroke-linejoin="round" stroke-miterlimit="10" stroke-width="2"/></g><line fill="none" stroke="#343D47" stroke-linecap="round" stroke-linejoin="round" stroke-miterlimit="10" stroke-width="2" x1="18.476" x2="111.523" y1="86.225" y2="86.225"/></g><circle cx="59.192" cy="29.379" fill="#7BECFF" r="1.312"/><circle cx="67.51" cy="35.922" fill="#7BECFF" r="1.312"/><circle cx="65.451" cy="29.943" fill="#7BECFF" r="0.746"/><circle cx="47.921" cy="32.301" fill="#7BECFF" r="0.746"/><circle cx="54.314" cy="23.371" fill="#7BECFF" r="0.746"/></g><g><g><path d="M70.775,103.785h-4.75c0-2.256-1.828-4.084-4.084-4.084h-9.182l0,0c0-2.256-1.828-4.084-4.084-4.084       h-2.818c-2.256,0-4.084,1.828-4.084,4.084l0,0h-5.664c-2.256,0-4.084,1.828-4.084,4.084s1.828,4.084,4.084,4.084h4.75       c0,2.256,1.828,4.082,4.084,4.082h25.832c2.256,0,4.084-1.828,4.084-4.084C74.859,105.613,73.031,103.785,70.775,103.785z" fill="#F4537A"/><path d="M52.759,99.701L52.759,99.701c0-0.711-0.199-1.369-0.518-1.951l-7.207-2.049       c-1.861,0.379-3.262,2.025-3.262,4l0,0h-5.664c-2.256,0-4.084,1.828-4.084,4.084s1.828,4.084,4.084,4.084h1.713l21.285-8.168       H52.759z" fill="#CE4A70"/><g><line fill="none" stroke="#343D47" stroke-linecap="round" stroke-linejoin="round" stroke-miterlimit="10" stroke-width="2" x1="46.64" x2="75.357" y1="99.709" y2="99.709"/><line fill="none" stroke="#343D47" stroke-linecap="round" stroke-linejoin="round" stroke-miterlimit="10" stroke-width="2" x1="51.093" x2="79.81" y1="95.256" y2="95.256"/><line fill="none" stroke="#343D47" stroke-linecap="round" stroke-linejoin="round" stroke-miterlimit="10" stroke-width="2" x1="55.546" x2="84.263" y1="90.803" y2="90.803"/></g><path d="M87.599,103.785h-2.818c-2.256,0-4.084,1.828-4.084,4.082c0,2.256,1.828,4.084,4.084,4.084h2.818       c2.256,0,4.084-1.828,4.084-4.084C91.683,105.613,89.855,103.785,87.599,103.785z" fill="#F4537A"/></g><path d="M67.785,106.826c0,0.529-0.428,0.959-0.957,0.959H53.494c-0.529,0-0.959-0.43-0.959-0.959l0,0      c0-0.529,0.43-0.957,0.959-0.957h13.334C67.357,105.869,67.785,106.297,67.785,106.826L67.785,106.826z" fill="#FF83A6"/><path d="M72.193,106.826c0,0.529-0.428,0.959-0.957,0.959h-1.152c-0.529,0-0.959-0.43-0.959-0.959l0,0      c0-0.529,0.43-0.957,0.959-0.957h1.152C71.765,105.869,72.193,106.297,72.193,106.826L72.193,106.826z" fill="#FF83A6"/><path d="M86.189,106.826c0,0.529-0.428,0.959-0.957,0.959H84.08c-0.529,0-0.959-0.43-0.959-0.959l0,0      c0-0.529,0.43-0.957,0.959-0.957h1.152C85.761,105.869,86.189,106.297,86.189,106.826L86.189,106.826z" fill="#FF83A6"/><path d="M51.046,106.826c0,0.529-0.428,0.959-0.957,0.959h-1.152c-0.529,0-0.959-0.43-0.959-0.959l0,0      c0-0.529,0.43-0.957,0.959-0.957h1.152C50.619,105.869,51.046,106.297,51.046,106.826L51.046,106.826z" fill="#FF83A6"/><path d="M62.175,102.076c0,0.529-0.43,0.959-0.959,0.959h-1.152c-0.529,0-0.957-0.43-0.957-0.959l0,0      c0-0.529,0.428-0.957,0.957-0.957h1.152C61.746,101.119,62.175,101.547,62.175,102.076L62.175,102.076z" fill="#FF83A6"/><path d="M45.693,106.826c0,0.529-0.428,0.959-0.957,0.959h-0.098c-0.529,0-0.957-0.43-0.957-0.959l0,0      c0-0.529,0.428-0.957,0.957-0.957h0.098C45.265,105.869,45.693,106.297,45.693,106.826L45.693,106.826z" fill="#FF83A6"/><path d="M57.603,102.076c0,0.529-0.428,0.959-0.957,0.959h-0.098c-0.529,0-0.957-0.43-0.957-0.959l0,0      c0-0.529,0.428-0.957,0.957-0.957h0.098C57.175,101.119,57.603,101.547,57.603,102.076L57.603,102.076z" fill="#FF83A6"/><path d="M89.25,106.826c0,0.529-0.428,0.959-0.957,0.959h-0.098c-0.529,0-0.957-0.43-0.957-0.959l0,0      c0-0.529,0.428-0.957,0.957-0.957h0.098C88.822,105.869,89.25,106.297,89.25,106.826L89.25,106.826z" fill="#FF83A6"/></g></g><g><g><path d="M52.123,39.375H39.263c-10.652,0-19.289,8.637-19.289,19.289v41.045h51.438V58.664      C71.412,48.012,62.777,39.375,52.123,39.375z" fill="#A08338"/><path d="M50.654,39.375h-9.92c-8.219,0-14.879,8.637-14.879,19.289v41.045h39.678V58.664      C65.533,48.012,58.873,39.375,50.654,39.375z" fill="#896C2B"/><path d="      M52.123,39.375H39.263c-10.652,0-19.289,8.637-19.289,19.289v41.045h51.438V58.664C71.412,48.012,62.777,39.375,52.123,39.375z" fill="none" stroke="#343D47" stroke-linecap="round" stroke-linejoin="round" stroke-miterlimit="10" stroke-width="2"/></g><g><g><g><g><circle cx="32.945" cy="62.125" fill="#FFE000" r="8.139"/><path d="M24.806,62.125c0-4.494,3.643-8.139,8.139-8.139c4.494,0,8.139,3.645,8.139,8.139" fill="#FFCE00"/><circle cx="32.945" cy="62.125" fill="none" r="8.139" stroke="#343D47" stroke-linecap="round" stroke-linejoin="round" stroke-miterlimit="10" stroke-width="2"/></g><path d="        M32.945,53.986c-4.496,0-8.139-3.643-8.139-8.137" fill="none" stroke="#343D47" stroke-linecap="round" stroke-linejoin="round" stroke-miterlimit="10" stroke-width="2"/><path d="        M27.681,53.986c-4.496,0-8.139-3.643-8.139-8.137" fill="none" stroke="#343D47" stroke-linecap="round" stroke-linejoin="round" stroke-miterlimit="10" stroke-width="2"/><path d="        M27.238,56.305c-2.252,1.357-5.178,0.635-6.535-1.617" fill="none" stroke="#343D47" stroke-linecap="round" stroke-linejoin="round" stroke-miterlimit="10" stroke-width="2"/></g><g><g><circle cx="58.441" cy="62.125" fill="#FFE000" r="8.139"/><path d="M66.58,62.125c0-4.494-3.643-8.139-8.139-8.139c-4.494,0-8.139,3.645-8.139,8.139" fill="#FFCE00"/><circle cx="58.441" cy="62.125" fill="none" r="8.139" stroke="#343D47" stroke-linecap="round" stroke-linejoin="round" stroke-miterlimit="10" stroke-width="2"/></g><path d="        M58.441,53.986c4.496,0,8.139-3.643,8.139-8.137" fill="none" stroke="#343D47" stroke-linecap="round" stroke-linejoin="round" stroke-miterlimit="10" stroke-width="2"/><path d="        M63.705,53.986c4.496,0,8.139-3.643,8.139-8.137" fill="none" stroke="#343D47" stroke-linecap="round" stroke-linejoin="round" stroke-miterlimit="10" stroke-width="2"/><path d="        M64.148,56.305c2.252,1.357,5.178,0.635,6.535-1.617" fill="none" stroke="#343D47" stroke-linecap="round" stroke-linejoin="round" stroke-miterlimit="10" stroke-width="2"/></g><g><g><circle cx="32.944" cy="62.125" fill="#343D47" r="2.64"/><circle cx="32.152" cy="61.201" fill="#5E6B77" r="0.924"/><circle cx="31.733" cy="62.877" fill="#5E6B77" r="0.419"/></g><g><circle cx="58.434" cy="62.125" fill="#343D47" r="2.64"/><circle cx="57.642" cy="61.201" fill="#5E6B77" r="0.924"/><circle cx="57.223" cy="62.877" fill="#5E6B77" r="0.419"/></g></g></g><g><polygon fill="#FFE000" points="50.615,68.219 45.835,70.508 40.962,68.025 45.691,63.295      "/><polygon fill="#FFB000" points="50.615,68.219 45.835,70.508 40.962,68.025 45.763,66.902      "/><polygon fill="none" points="       50.615,68.219 45.835,70.508 40.962,68.025 45.691,63.295      " stroke="#343D47" stroke-linecap="round" stroke-linejoin="round" stroke-miterlimit="10" stroke-width="2"/></g></g><g><path d="M21.994,78.541c0,2.143,1.736,3.879,3.879,3.879s3.879-1.736,3.879-3.879H21.994z" fill="#B29044"/><path d="M29.921,78.541c0,2.143,1.736,3.879,3.879,3.879s3.881-1.736,3.881-3.879H29.921z" fill="#A08338"/><path d="M37.851,78.541c0,2.143,1.736,3.879,3.879,3.879s3.879-1.736,3.879-3.879H37.851z" fill="#B29044"/><path d="M45.779,78.541c0,2.143,1.736,3.879,3.879,3.879s3.879-1.736,3.879-3.879H45.779z" fill="#A08338"/><path d="M53.707,78.541c0,2.143,1.738,3.879,3.879,3.879c2.145,0,3.881-1.736,3.881-3.879H53.707z" fill="#B29044"/><path d="M61.636,78.541c0,2.143,1.736,3.879,3.879,3.879s3.879-1.736,3.879-3.879H61.636z" fill="#A08338"/></g><g><path d="M25.957,82.764c0,2.143,1.736,3.879,3.879,3.879s3.881-1.736,3.881-3.879H25.957z" fill="#A08338"/><path d="M33.886,82.764c0,2.143,1.736,3.879,3.879,3.879s3.879-1.736,3.879-3.879H33.886z" fill="#B29044"/><path d="M41.814,82.764c0,2.143,1.736,3.879,3.879,3.879s3.879-1.736,3.879-3.879H41.814z" fill="#A08338"/><path d="M49.742,82.764c0,2.143,1.738,3.879,3.879,3.879c2.145,0,3.881-1.736,3.881-3.879H49.742z" fill="#B29044"/><path d="M57.671,82.764c0,2.143,1.736,3.879,3.879,3.879s3.879-1.736,3.879-3.879H57.671z" fill="#A08338"/></g><g><path d="M21.994,86.986c0,2.143,1.736,3.879,3.879,3.879s3.879-1.736,3.879-3.879H21.994z" fill="#B29044"/><path d="M29.921,86.986c0,2.143,1.736,3.879,3.879,3.879s3.881-1.736,3.881-3.879H29.921z" fill="#A08338"/><path d="M37.851,86.986c0,2.143,1.736,3.879,3.879,3.879s3.879-1.736,3.879-3.879H37.851z" fill="#B29044"/><path d="M45.779,86.986c0,2.143,1.736,3.879,3.879,3.879s3.879-1.736,3.879-3.879H45.779z" fill="#A08338"/><path d="M53.707,86.986c0,2.143,1.738,3.879,3.879,3.879c2.145,0,3.881-1.736,3.881-3.879H53.707z" fill="#B29044"/><path d="M61.636,86.986c0,2.143,1.736,3.879,3.879,3.879s3.879-1.736,3.879-3.879H61.636z" fill="#A08338"/></g><g><path d="M25.957,91.209c0,2.143,1.736,3.879,3.879,3.879s3.881-1.736,3.881-3.879H25.957z" fill="#A08338"/><path d="M33.886,91.209c0,2.143,1.736,3.879,3.879,3.879s3.879-1.736,3.879-3.879H33.886z" fill="#B29044"/><path d="M41.814,91.209c0,2.143,1.736,3.879,3.879,3.879s3.879-1.736,3.879-3.879H41.814z" fill="#A08338"/><path d="M49.742,91.209c0,2.143,1.738,3.879,3.879,3.879c2.145,0,3.881-1.736,3.881-3.879H49.742z" fill="#B29044"/><path d="M57.671,91.209c0,2.143,1.736,3.879,3.879,3.879s3.879-1.736,3.879-3.879H57.671z" fill="#A08338"/></g></g></g><path d="M91.38,18.275c-8.85,0-16.023,7.174-16.023,16.023c0,3.248,0.973,6.264,2.631,8.787l-2.514,7.119   l7.119-2.514c2.525,1.66,5.541,2.633,8.787,2.633c8.852,0,16.025-7.174,16.025-16.025C107.406,25.449,100.232,18.275,91.38,18.275z   " fill="#E1FCFF"/><path d="M82.099,21.252c-4.076,2.906-6.742,7.66-6.742,13.047c0,3.248,0.973,6.264,2.631,8.787l-2.514,7.119   l7.119-2.514c2.525,1.66,5.541,2.633,8.787,2.633c6.309,0,11.748-3.652,14.363-8.949C100.382,32.268,92.062,25.123,82.099,21.252z" fill="#FFFFFF"/><g><g><rect fill="none" height="4.043" stroke="#343D47" stroke-linecap="round" stroke-linejoin="round" stroke-miterlimit="10" stroke-width="2" width="4.043" x="81.023" y="30.49"/><rect fill="none" height="4.041" stroke="#343D47" stroke-linecap="round" stroke-linejoin="round" stroke-miterlimit="10" stroke-width="2" width="4.043" x="81.023" y="34.533"/></g><g><polyline fill="none" points="     88.199,34.533 88.199,30.49 92.242,30.49 92.242,34.533    " stroke="#343D47" stroke-linecap="round" stroke-linejoin="round" stroke-miterlimit="10" stroke-width="2"/><polyline fill="none" points="     92.242,34.533 92.242,38.574 88.199,38.574 88.199,34.533    " stroke="#343D47" stroke-linecap="round" stroke-linejoin="round" stroke-miterlimit="10" stroke-width="2"/></g><g><polyline fill="none" points="     95.375,34.533 95.375,30.49 99.417,30.49 99.417,34.533    " stroke="#343D47" stroke-linecap="round" stroke-linejoin="round" stroke-miterlimit="10" stroke-width="2"/><polyline fill="none" points="     99.417,34.533 99.417,38.574 95.375,38.574 95.375,34.533    " stroke="#343D47" stroke-linecap="round" stroke-linejoin="round" stroke-miterlimit="10" stroke-width="2"/></g><g><line fill="none" stroke="#343D47" stroke-linecap="round" stroke-linejoin="round" stroke-miterlimit="10" stroke-width="2" x1="103.408" x2="103.408" y1="30.49" y2="35.732"/><line fill="none" stroke="#343D47" stroke-linecap="round" stroke-linejoin="round" stroke-miterlimit="10" stroke-width="2" x1="103.408" x2="103.408" y1="38.574" y2="38.574"/></g></g></g></svg>